<?xml version="1.0" standalone="no"?>
<!DOCTYPE svg PUBLIC "-//W3C//DTD SVG 20010904//EN"
 "http://www.w3.org/TR/2001/REC-SVG-20010904/DTD/svg10.dtd">
<svg version="1.0" xmlns="http://www.w3.org/2000/svg"
 width="150.000000pt" height="45.000000pt" viewBox="0 0 150.000000 45.000000"
 preserveAspectRatio="xMidYMid meet">

<g transform="translate(0.000000,45.000000) scale(0.100000,-0.100000)"
fill="#000000" stroke="none">
<path d="M1324 329 c-11 -13 -27 -19 -40 -16 -19 3 -21 2 -11 -15 16 -25 21
-23 51 17 30 39 30 47 0 14z"/>
<path d="M130 330 c0 -16 72 -175 86 -190 10 -10 19 -12 30 -5 18 12 99 193
91 202 -15 14 -39 -11 -69 -72 -18 -36 -35 -65 -38 -65 -3 1 -19 32 -37 70
-20 43 -38 70 -48 70 -8 0 -15 -4 -15 -10z"/>
<path d="M364 327 c-3 -8 -4 -54 -2 -103 3 -75 6 -89 21 -92 15 -3 17 7 17
102 0 89 -3 106 -15 106 -9 0 -18 -6 -21 -13z"/>
<path d="M420 337 c0 -1 20 -47 44 -102 37 -84 47 -100 66 -100 19 0 30 16 66
99 24 55 42 102 39 105 -13 13 -42 -21 -73 -85 l-34 -68 -29 69 c-16 38 -34
72 -41 77 -12 7 -38 11 -38 5z"/>
<path d="M667 333 c-33 -9 -12 -28 27 -25 69 7 93 -42 25 -51 -50 -7 -79 -31
-79 -68 0 -48 64 -72 138 -52 23 6 24 9 20 90 -2 70 -6 87 -22 99 -19 13 -71
17 -109 7z m93 -133 c0 -23 -5 -31 -24 -36 -25 -6 -66 10 -66 26 0 18 33 40
61 40 26 0 29 -4 29 -30z"/>
<path d="M800 336 c0 -2 20 -48 44 -102 36 -83 47 -99 66 -99 19 0 29 16 66
99 24 55 42 102 40 104 -3 2 -13 1 -24 -2 -12 -4 -32 -35 -52 -79 -20 -44 -34
-66 -38 -57 -16 45 -56 126 -66 132 -11 8 -36 11 -36 4z"/>
<path d="M1057 329 c-23 -14 -47 -62 -47 -96 0 -15 9 -42 20 -60 33 -54 125
-55 159 -2 16 27 16 101 0 127 -24 38 -92 54 -132 31z m85 -36 c25 -23 25 -94
-2 -118 -25 -22 -66 -13 -76 17 -26 83 25 149 78 101z"/>
<path d="M1261 151 l-34 -46 31 28 c23 22 36 27 54 22 l23 -8 -20 24 c-11 13
-20 25 -20 25 0 1 -15 -19 -34 -45z"/>
</g>
</svg>
